<svg width="48" height="166" viewBox="0 0 48 166" fill="none" xmlns="http://www.w3.org/2000/svg">
<path d="M20.6379 0.352359C20.8469 0.352359 21.0558 0.34968 21.2701 0.34968C21.7094 0.347001 22.1487 0.347001 22.588 0.347001C23.2496 0.347001 23.9086 0.341644 24.5675 0.336287C30.8758 0.314857 36.3082 1.48276 40.9664 6.03384C45.7238 10.8956 46.8917 16.4753 46.8943 23.0354C46.8943 23.4104 46.897 23.7828 46.8997 24.1578C46.905 25.1703 46.9077 26.1855 46.9104 27.1981C46.9131 28.2963 46.9184 29.3946 46.9238 30.4929C46.9345 33.1367 46.9426 35.7806 46.9479 38.4244C46.9506 39.4236 46.9533 40.4201 46.9559 41.4165C46.9667 45.8176 46.9774 50.2213 46.9827 54.6224C46.9827 55.6939 46.9854 56.768 46.9854 57.8422C46.9854 58.244 46.9854 58.244 46.9854 58.6511C46.9908 62.9799 47.0068 67.3086 47.0283 71.6374C47.047 76.0893 47.0577 80.5413 47.0604 84.9933C47.0631 87.4925 47.0684 89.989 47.0845 92.4855C47.0979 94.6097 47.1033 96.7339 47.0979 98.8581C47.0952 99.9403 47.0952 101.022 47.106 102.105C47.1167 103.098 47.1167 104.092 47.1086 105.083C47.1059 105.611 47.1167 106.136 47.1274 106.661C47.0818 109.342 46.0773 110.671 44.4005 112.635C43.6183 113.819 42.9192 115.027 42.3245 116.318C41.7164 117.585 40.8646 118.678 40.0396 119.808C39.2735 120.861 38.6172 121.924 38.0092 123.079C37.4654 124.04 36.7796 124.892 36.0966 125.76C35.2367 126.864 34.4412 127.962 33.7367 129.175C33.1125 130.247 32.4161 131.222 31.6607 132.205C30.8357 133.285 30.1472 134.343 29.5177 135.545C28.9043 136.598 28.173 137.565 27.4552 138.551C26.6301 139.692 25.8828 140.854 25.1836 142.076C24.8327 142.66 24.4952 143.196 24.0425 143.707C23.7773 143.707 23.5121 143.707 23.2389 143.707C22.8157 143.236 22.8157 143.236 22.355 142.566C22.0978 142.194 22.0978 142.194 21.8353 141.816C21.6531 141.546 21.471 141.275 21.2808 140.994C20.9969 140.579 20.9969 140.579 20.7049 140.153C19.2798 138.063 17.9137 135.939 16.5663 133.796C15.5458 132.176 14.4877 130.584 13.3948 129.007C12.0045 126.992 10.6813 124.948 9.40354 122.862C9.00441 122.216 8.60261 121.573 8.19813 120.93C6.67129 118.493 5.18194 116.05 3.82117 113.519C3.72474 113.339 3.6283 113.16 3.52919 112.975C3.43544 112.803 3.34437 112.629 3.24793 112.45C2.88899 111.815 2.88899 111.815 2.41754 111.207C0.946948 109.182 0.740688 107.601 0.775511 105.14C0.775511 104.767 0.772833 104.398 0.770154 104.025C0.764797 103.015 0.770154 102.003 0.77819 100.99C0.783547 99.8974 0.780868 98.8019 0.775511 97.709C0.772832 95.5687 0.77819 93.4284 0.786226 91.2882C0.79694 88.7943 0.796941 86.3005 0.796941 83.8066C0.796941 79.3546 0.807654 74.9054 0.821048 70.4561C0.834441 66.138 0.842478 61.8227 0.842478 57.5073C0.842478 57.2422 0.842478 56.9743 0.842478 56.7011C0.842478 56.4359 0.842478 56.1707 0.842478 55.8975C0.845156 55.3617 0.845157 54.8287 0.845157 54.2929C0.845157 54.0304 0.845157 53.7652 0.845157 53.4947C0.845157 49.3776 0.853194 45.2604 0.858551 41.1433C0.86123 39.6539 0.863908 38.1619 0.863908 36.6726C0.866586 34.3073 0.869264 31.942 0.879979 29.5794C0.882658 28.4999 0.885338 27.4204 0.885338 26.3382C0.885338 25.3498 0.888017 24.3614 0.896053 23.3703C0.898731 22.8452 0.896052 22.3202 0.893373 21.7952C0.909445 20.1612 1.00856 18.7683 1.61394 17.2441C1.88984 16.5343 2.02645 15.8137 2.17914 15.069C3.20239 10.1376 5.77125 6.50796 9.8482 3.56677C13.1751 1.39169 16.6547 0.357716 20.6379 0.352359Z" fill="#072442"/>
<path d="M19.7192 4.94472C6.33458 7.41031 5.55675 17.9331 5.18984 23.4366L32.0472 23.6568H41.2931C40.8776 19.0933 39.4111 11.67 35.3493 7.58642C32.5623 4.78449 24.9604 3.97924 19.7192 4.94472Z" fill="#072442"/>
<path d="M25.6045 35.8179C30.7315 35.9063 35.8585 35.9947 41.1409 36.0858C41.2293 58.892 41.3177 81.6983 41.4088 105.196C40.79 104.665 40.1712 104.135 39.5337 103.588C39.2953 103.406 39.0596 103.224 38.8131 103.037C37.9238 102.289 37.2943 101.392 36.6032 100.465C35.8692 99.6321 35.154 99.1258 34.0585 98.9008C32.5075 99.2035 31.5485 100.588 30.6994 101.826C30.5869 101.992 30.4744 102.161 30.3592 102.332C29.9494 102.946 29.5315 103.535 29.0868 104.124C28.91 104.124 28.7332 104.124 28.5511 104.124C28.1252 103.653 28.1252 103.653 27.6457 103.021C27.4903 102.814 27.3323 102.608 27.1716 102.396C27.0082 102.171 26.8448 101.946 26.676 101.713C26.4001 101.376 26.4001 101.376 26.1162 101.03C25.4358 99.8035 25.4572 98.8526 25.476 97.4731C25.476 97.2079 25.4733 96.9454 25.4733 96.6721C25.4706 95.7882 25.476 94.9069 25.484 94.0229C25.484 93.3881 25.484 92.7559 25.4813 92.1211C25.4813 90.4013 25.4894 88.6816 25.4947 86.9619C25.5028 85.3467 25.5028 83.7314 25.5054 82.1162C25.5054 78.9152 25.5135 75.7168 25.5242 72.5185C25.5322 69.4112 25.5403 66.3039 25.5456 63.1967C25.5456 63.0038 25.5456 62.8136 25.5456 62.6154C25.5483 61.6538 25.5483 60.6921 25.551 59.7331C25.5617 51.7614 25.5804 43.7896 25.6045 35.8179Z" fill="#F5F8FB"/>
<path d="M20.7829 35.8179C20.8258 44.0066 20.8579 52.1927 20.8794 60.3814C20.882 61.3484 20.8847 62.3154 20.8847 63.2824C20.8874 63.4753 20.8874 63.6654 20.8874 63.8637C20.8954 66.9817 20.9115 70.097 20.9276 73.2123C20.9463 76.4106 20.9544 79.6063 20.9597 82.8046C20.9624 84.5993 20.9678 86.3967 20.9812 88.1914C20.9945 89.8817 20.9972 91.5719 20.9945 93.2622C20.9945 93.8836 20.9999 94.5024 21.0053 95.1239C21.016 95.9703 21.0133 96.8168 21.0079 97.6659C21.0133 97.9097 21.0187 98.1561 21.024 98.4079C20.9972 100.053 20.5606 100.878 19.4141 102.051C18.6373 102.766 17.8498 103.457 17.0328 104.124C16.9283 103.974 16.8238 103.827 16.7167 103.672C15.4631 101.96 13.8719 99.833 11.6835 99.4205C10.5772 99.624 10.1111 100.227 9.43069 101.06C9.17889 101.357 8.92174 101.652 8.66726 101.944C8.47976 102.161 8.47976 102.161 8.28957 102.38C7.53418 103.222 6.68236 103.977 5.78233 104.66C5.69393 104.66 5.60553 104.66 5.51446 104.66C5.51446 82.0305 5.51446 59.401 5.51446 36.0858C20.2472 35.8179 20.2472 35.8179 20.7829 35.8179Z" fill="#F4F7F9"/>
<path d="M35.1808 36.3181C35.4942 36.3181 35.805 36.3181 36.1264 36.3181C36.4559 36.3181 36.7854 36.3181 37.1229 36.3207C37.6158 36.3181 37.6158 36.3181 38.1193 36.3181C38.5881 36.3181 38.5881 36.3181 39.0649 36.3181C39.3542 36.3181 39.6435 36.3181 39.9409 36.3181C40.6052 36.3529 40.6052 36.3529 40.873 36.6207C40.94 37.2556 40.9855 37.8797 41.0204 38.5146C41.0311 38.7182 41.0418 38.9191 41.0552 39.128C41.1972 41.9406 41.1891 44.7532 41.1972 47.5685C41.1972 48.2007 41.1998 48.8328 41.2052 49.4623C41.2105 51.1633 41.2159 52.8643 41.2213 54.5652C41.2266 56.1644 41.2347 57.7662 41.24 59.3681C41.2534 62.537 41.2641 65.7032 41.2748 68.872C41.2855 71.9445 41.2963 75.0196 41.3097 78.0921C41.3097 78.2822 41.3097 78.4724 41.3123 78.668C41.315 79.6216 41.3177 80.5752 41.3231 81.5288C41.3525 89.4175 41.382 97.3062 41.4088 105.195C41.2829 105.085 41.1543 104.975 41.023 104.863C40.857 104.718 40.6882 104.576 40.5168 104.426C40.3507 104.284 40.1846 104.142 40.0132 103.995C39.6221 103.663 39.2203 103.349 38.8131 103.036C37.9238 102.291 37.2943 101.391 36.6032 100.464C35.888 99.6528 35.1728 99.1384 34.1094 98.9C33.954 98.8572 33.8013 98.8116 33.6406 98.7661C33.2817 97.692 33.3352 96.6607 33.3379 95.541C33.3379 95.2892 33.3379 95.0374 33.3379 94.7802C33.3352 93.9338 33.3379 93.09 33.3379 92.2462C33.3379 91.6408 33.3379 91.0381 33.3379 90.4327C33.3352 88.7907 33.3352 87.146 33.3379 85.504C33.3379 83.7869 33.3379 82.0726 33.3352 80.3555C33.3352 77.2885 33.3379 74.2214 33.3379 71.1543C33.3406 68.3711 33.3379 65.588 33.3379 62.8048C33.3352 59.577 33.3352 56.3465 33.3379 53.1161C33.3379 51.4071 33.3379 49.6954 33.3352 47.9864C33.3352 46.3792 33.3352 44.772 33.3379 43.1648C33.3379 42.5728 33.3379 41.9808 33.3379 41.3888C33.3352 40.5852 33.3379 39.7816 33.3379 38.978C33.3379 38.7396 33.3379 38.5012 33.3379 38.2574C33.3433 36.4145 33.3567 36.3207 35.1808 36.3181Z" fill="#E0E7EC"/>
<path d="M5.51446 36.0858C7.90116 36.0858 10.2879 36.0858 12.7469 36.0858C13.2451 36.584 13.0496 37.2992 13.0496 37.9635C13.0496 38.3117 13.0496 38.3117 13.0496 38.6707C13.0496 38.9144 13.0496 39.1609 13.0496 39.4154C13.0523 40.2458 13.0496 41.0761 13.0496 41.9065C13.0496 42.5012 13.0496 43.0932 13.0496 43.6852C13.0523 45.3031 13.0523 46.9183 13.0496 48.5336C13.0496 50.2238 13.0496 51.9141 13.0523 53.6016C13.0523 56.6232 13.0496 59.6447 13.0496 62.6663C13.0469 65.4039 13.0496 68.1415 13.0496 70.8791C13.0523 74.0587 13.0523 77.2356 13.0496 80.4152C13.0496 82.0974 13.0496 83.7797 13.0523 85.4619C13.0523 87.045 13.0523 88.6281 13.0496 90.2138C13.0496 90.7951 13.0496 91.3737 13.0496 91.955C13.0523 92.7506 13.0496 93.5434 13.0496 94.3363C13.0496 94.5667 13.0496 94.7971 13.0496 95.0328C13.0469 96.3882 12.9424 97.69 12.7469 99.0347C12.2996 99.1419 12.2996 99.1419 11.8415 99.2517C10.3843 99.7901 9.57801 100.88 8.5869 102.032C7.7324 103.002 6.80826 103.875 5.78233 104.66C5.69393 104.66 5.60553 104.66 5.51446 104.66C5.51446 82.0305 5.51446 59.401 5.51446 36.0858Z" fill="#C5D0D6"/>
<path d="M34.1763 104.392C35.4969 104.869 36.2068 106.037 37.0345 107.103C37.9345 108.217 38.789 108.836 40.0694 109.482C39.9676 109.64 39.8658 109.795 39.7641 109.956C37.5193 113.457 35.3549 117.001 33.3406 120.636C32.9173 121.391 32.4807 122.136 32.0334 122.875C31.87 122.856 31.7066 122.837 31.5378 122.819C28.9234 122.556 26.3144 122.567 23.6893 122.572C22.8911 122.575 22.0955 122.572 21.2999 122.57C20.7883 122.57 20.274 122.572 19.7597 122.572C19.5266 122.572 19.2909 122.57 19.0498 122.57C17.4721 122.575 15.9238 122.69 14.3541 122.875C14.263 122.712 14.1693 122.551 14.0755 122.382C10.4566 115.991 10.4566 115.991 6.58593 109.749C6.99309 109.417 6.99309 109.417 7.40561 109.08C8.33511 108.287 9.12264 107.419 9.91285 106.492C10.3843 105.943 10.8852 105.429 11.4076 104.928C12.8942 105.362 13.73 106.42 14.7184 107.537C15.4577 108.327 15.8676 108.651 16.9363 108.962C17.9489 108.943 18.1953 108.849 18.8918 108.142C19.0686 107.971 19.2454 107.799 19.4275 107.623C19.7007 107.349 19.7007 107.349 19.9793 107.071C20.3677 106.717 20.7588 106.364 21.1526 106.015C21.324 105.86 21.4981 105.702 21.6776 105.541C22.1223 105.196 22.1223 105.196 22.658 105.196C22.658 105.019 22.658 104.842 22.658 104.66C23.5286 104.815 23.9518 105.056 24.5572 105.697C24.7072 105.852 24.8545 106.005 25.0099 106.163C25.1626 106.323 25.3126 106.487 25.4706 106.653C25.7733 106.972 26.0787 107.288 26.3841 107.607C26.5153 107.746 26.6492 107.888 26.7885 108.035C27.2627 108.456 27.6966 108.707 28.2832 108.946C29.1833 108.855 29.9333 108.632 30.694 108.142C31.053 107.698 31.4119 107.25 31.7655 106.803C32.3013 106.356 32.837 105.908 33.3727 105.464C33.8576 104.885 33.8576 104.885 34.1763 104.392Z" fill="#F0F4F8"/>
<path d="M5.24659 23.496C17.1801 23.496 29.1136 23.496 41.4088 23.496C41.4088 25.9711 41.4088 28.4462 41.4088 30.9963C36.6514 31.0016 31.8968 30.9856 27.1421 30.9373C26.5046 30.932 25.8644 30.9266 25.2269 30.9186C23.5741 30.9052 21.9214 30.8891 20.2686 30.8731C18.573 30.857 16.8747 30.8409 15.1765 30.8248C11.8656 30.7927 8.55744 30.7606 5.24659 30.7284C5.24659 28.3417 5.24659 25.955 5.24659 23.496Z" fill="#F3F6F9"/>
<path d="M20.8405 157.921C21.0923 157.921 21.3414 157.918 21.6012 157.918C22.1263 157.915 22.654 157.915 23.179 157.915C23.9772 157.915 24.7755 157.91 25.5737 157.905C32.099 157.886 32.099 157.886 33.5401 159.089C33.9982 160.021 34.1937 160.672 34.1776 161.716C33.591 162.437 33.591 162.437 32.8383 163.056C32.6776 163.235 32.5195 163.415 32.3561 163.599C30.3016 165.432 26.297 165.049 23.6906 165.019C23.0424 165.014 22.3968 165.014 21.7512 165.016C15.3813 165.006 15.3813 165.006 14.0393 163.924C13.3 163.08 12.9196 162.252 12.8312 161.13C13.0536 159.9 13.3777 159.525 14.3554 158.77C16.2358 157.677 18.7243 157.923 20.8405 157.921Z" fill="#072442"/>
<path d="M20.7829 62.6047C20.8713 62.6047 20.9597 62.6047 21.0508 62.6047C21.0695 64.1717 21.091 65.7361 21.1097 67.3031C21.1124 67.5442 21.1151 67.7879 21.1178 68.0371C21.1553 70.9863 21.1901 73.9355 21.2196 76.8874C21.2222 77.158 21.2249 77.4285 21.2276 77.7071C21.2383 78.8 21.249 79.8956 21.2597 80.9885C21.2892 83.852 21.3187 86.7128 21.3722 89.5763C21.4017 91.138 21.4231 92.697 21.4392 94.2587C21.4472 94.8721 21.4606 95.4855 21.4767 96.0989C21.4955 96.9373 21.5062 97.7731 21.5115 98.6088C21.5196 98.8472 21.5276 99.083 21.5383 99.3267C21.533 100.639 21.3481 101.285 20.4079 102.228C20.0865 102.501 19.765 102.777 19.4436 103.053C19.24 103.313 19.0337 103.572 18.8248 103.84C18.6748 104.022 18.5248 104.205 18.3721 104.392C18.1953 104.392 18.0185 104.392 17.8364 104.392C17.748 104.657 17.6596 104.922 17.5685 105.196C17.3033 105.107 17.0381 105.019 16.7649 104.928C17.5712 103.559 18.5891 102.533 19.7302 101.432C20.5713 100.58 20.5499 100.045 20.5579 98.8767C20.5606 98.3972 20.5606 98.3972 20.566 97.9097C20.566 97.5588 20.5686 97.2079 20.5713 96.8463C20.5713 96.4739 20.574 96.1016 20.5793 95.7292C20.5847 94.7167 20.5901 93.7042 20.5954 92.6943C20.6035 91.6362 20.6088 90.5781 20.6168 89.5227C20.6302 87.5191 20.641 85.5154 20.6544 83.5145C20.6677 81.2349 20.6811 78.9554 20.6972 76.6758C20.7267 71.9854 20.7561 67.2951 20.7829 62.6047Z" fill="#072442"/>
<path d="M10.8718 99.3026C11.4236 99.4205 11.4236 99.4205 11.9433 99.5705C11.7665 99.7258 11.587 99.8812 11.4049 100.042C9.87267 101.373 9.87267 101.373 8.5119 102.868C7.92527 103.588 7.31989 104.1 6.58593 104.66C6.44128 104.815 6.29931 104.968 6.15198 105.129C5.78233 105.464 5.78233 105.464 4.97872 105.464C5.06712 105.11 5.15551 104.756 5.24659 104.392C5.42338 104.392 5.60018 104.392 5.78233 104.392C7.56097 102.954 9.14407 101.328 10.6039 99.5705C10.6923 99.4821 10.7807 99.3937 10.8718 99.3026Z" fill="#072442"/>
<path d="M19.1757 103.053C18.9587 103.572 18.9587 103.572 18.64 104.124C18.3748 104.213 18.1096 104.301 17.8364 104.392C17.748 104.657 17.6596 104.922 17.5685 105.196C17.3033 105.107 17.0381 105.019 16.7649 104.928C17.3462 103.822 17.8417 103.053 19.1757 103.053Z" fill="#6C71C4" fill-opacity="0.0941176"/>
<path d="M14.4357 122.941L16.6371 122.721C17.4443 122.721 19.455 122.5 21.0401 122.5C23.0213 122.5 31.6068 122.721 32.0471 122.941C32.3993 123.117 26.7637 132.407 23.6818 137.03C20.4746 132.791 14.573 123.647 14.4357 122.941Z" fill="#072442"/>
</svg>
